<svg width="16" height="17" viewBox="0 0 16 17" fill="none" xmlns="http://www.w3.org/2000/svg">
<mask id="mask0_9537_3172" style="mask-type:luminance" maskUnits="userSpaceOnUse" x="0" y="0" width="16" height="17">
<path d="M2.65742 0.680081C1.19519 0.680081 0.00978621 1.86548 0.00978621 3.32785C0.00978621 4.79008 1.19519 5.97536 2.65742 5.97536H6.7802L0.748138 12.1878C-0.270565 13.237 -0.2458 14.9132 0.803271 15.932C1.85247 16.9505 3.52872 16.9258 4.54729 15.8768L14.5924 5.5313C15.3038 5.05662 15.7728 4.24724 15.7728 3.32785C15.7728 1.86548 14.5874 0.680081 13.1252 0.680081H2.65742Z" fill="white"/>
</mask>
<g mask="url(#mask0_9537_3172)">
<path d="M11.8505 11.7428C11.4068 11.7428 11.0457 11.3818 11.0457 10.9381C11.0457 10.4943 11.4068 10.1333 11.8505 10.1333C12.2943 10.1333 12.6553 10.4943 12.6553 10.9381C12.6553 11.3818 12.2943 11.7428 11.8505 11.7428ZM11.8505 9.58799C11.106 9.58799 10.5005 10.1937 10.5005 10.9381C10.5005 11.6825 11.106 12.288 11.8505 12.288C12.5949 12.288 13.2005 11.6825 13.2005 10.9381C13.2005 10.1937 12.5949 9.58799 11.8505 9.58799Z" fill="url(#paint0_linear_9537_3172)"/>
</g>
<path d="M9.37891 10.9008L10.0797 10.179C10.2671 9.74331 10.611 9.38997 11.04 9.19003L11.7408 8.46823C10.4408 8.52545 9.39833 9.59147 9.37891 10.9008Z" fill="url(#paint1_linear_9537_3172)"/>
<path d="M8.25635 10.9381C8.25635 11.2774 8.30366 11.6058 8.3919 11.9172L8.84481 11.4508C8.8164 11.2841 8.80167 11.1129 8.80167 10.9381C8.80167 9.25676 10.1694 7.88889 11.8507 7.88889C11.9946 7.88889 12.1362 7.89893 12.2747 7.91835L12.7276 7.45188C12.4469 7.38124 12.1533 7.3437 11.8507 7.3437C9.86886 7.3437 8.25635 8.95608 8.25635 10.9381Z" fill="url(#paint2_linear_9537_3172)"/>
<path d="M7.13428 10.9381C7.13428 11.6038 7.27295 12.2377 7.52281 12.8125L7.93832 12.3846C7.7711 11.9338 7.6796 11.4465 7.6796 10.9381C7.6796 8.63811 9.55083 6.76688 11.8509 6.76688C12.316 6.76688 12.7635 6.84339 13.1816 6.98441L13.5971 6.55652C13.0569 6.34042 12.4673 6.22156 11.8509 6.22156C9.25014 6.22156 7.13428 8.33743 7.13428 10.9381Z" fill="url(#paint3_linear_9537_3172)"/>
<path d="M6.01221 10.9381C6.01221 11.924 6.25789 12.8536 6.69112 13.6689L7.0923 13.2557C6.74977 12.5553 6.55753 11.7687 6.55753 10.9381C6.55753 8.0174 8.92612 5.64464 11.851 5.64464C12.6209 5.64464 13.3584 5.81251 14.0255 6.11515L14.4264 5.70225C13.6449 5.31568 12.7688 5.09932 11.851 5.09932C8.63339 5.09932 6.01221 7.70812 6.01221 10.9381Z" fill="url(#paint4_linear_9537_3172)"/>
<path d="M14.2787 4.6987C14.2185 4.8366 14.2814 4.9973 14.4192 5.05778C14.5829 5.12933 14.7432 5.20753 14.8995 5.29199C15.0382 5.16687 15.1634 5.02715 15.273 4.87544C15.0675 4.75931 14.8554 4.65335 14.6378 4.5582C14.6022 4.54256 14.5651 4.53513 14.5284 4.53513C14.4235 4.53513 14.3234 4.59626 14.2787 4.6987Z" fill="url(#paint5_linear_9537_3172)"/>
<path d="M4.89014 10.9381C4.89014 12.242 5.25052 13.4633 5.87691 14.5076L6.27104 14.1018C5.73927 13.1676 5.43533 12.0877 5.43533 10.9381C5.43533 6.80245 9.32116 3.6959 13.4048 4.71226C13.5508 4.74875 13.699 4.65973 13.7354 4.51376C13.7717 4.36739 13.6828 4.21959 13.5366 4.18309C12.9647 4.04077 12.3955 3.97326 11.8383 3.97312C8.09926 3.97312 4.89014 7.01594 4.89014 10.9381Z" fill="url(#paint6_linear_9537_3172)"/>
<path d="M5.47198 5.97546H6.17879C7.72704 4.20929 10.0774 3.17963 12.6046 3.43822C13.6468 3.54145 14.6532 3.86403 15.5573 4.37481C15.6302 4.2059 15.6861 4.02786 15.7226 3.84291C14.7798 3.32822 13.7372 3.00238 12.6593 2.89576C12.3812 2.86735 12.1046 2.8534 11.8313 2.8534C9.27439 2.85327 6.95911 4.06892 5.47198 5.97546ZM4.05953 8.77716C3.86937 9.46376 3.76758 10.1879 3.76758 10.9381C3.76758 12.5588 4.24708 14.0698 5.07172 15.3364L5.46194 14.9346C4.73415 13.7754 4.3129 12.4049 4.3129 10.9381C4.3129 9.82401 4.55363 8.77129 4.98348 7.82571L4.05953 8.77716Z" fill="url(#paint7_linear_9537_3172)"/>
<path d="M5.18731 4.59275C4.47281 5.14628 3.69406 5.61145 2.87099 5.97548H4.08507C4.09197 5.97157 4.09888 5.96766 4.10579 5.96375C4.10331 5.96753 4.10084 5.97157 4.09836 5.97548H4.75265C4.99403 5.63113 5.26108 5.30347 5.55238 4.99548C5.63945 4.90412 5.66043 4.74315 5.55551 4.62611C5.49986 4.56512 5.42505 4.53644 5.35206 4.53644C5.29197 4.53644 5.23332 4.55586 5.18731 4.59275ZM2.67431 10.204C2.65502 10.4477 2.64551 10.6926 2.64551 10.9381C2.64551 12.8638 3.23671 14.6565 4.25215 16.1389C4.35538 16.0601 4.45391 15.9727 4.5471 15.8768L4.65672 15.7639C3.72925 14.3825 3.1907 12.721 3.1907 10.9381C3.1907 10.4717 3.22785 10.0108 3.30005 9.55931L2.67431 10.204Z" fill="url(#paint8_linear_9537_3172)"/>
<path d="M1.53271 11.3797C1.61274 13.2886 2.20968 15.0891 3.21417 16.6189C3.39769 16.579 3.57755 16.5193 3.75077 16.4401C2.67563 14.8547 2.06865 12.9511 2.06865 10.9381C2.06865 10.9011 2.06892 10.8641 2.06931 10.827L1.53271 11.3797Z" fill="url(#paint9_linear_9537_3172)"/>
<path d="M0.748089 12.1878C0.659069 12.2795 0.578001 12.376 0.504883 12.4765C0.70182 13.9287 1.17416 15.3149 1.88136 16.5672C2.10958 16.636 2.34509 16.6733 2.58113 16.6791C1.70254 15.2607 1.14874 13.641 0.992205 11.9364L0.748089 12.1878Z" fill="url(#paint10_linear_9537_3172)"/>
<mask id="mask1_9537_3172" style="mask-type:luminance" maskUnits="userSpaceOnUse" x="0" y="0" width="16" height="17">
<path d="M2.65742 0.680081C1.19519 0.680081 0.00978621 1.86548 0.00978621 3.32785C0.00978621 4.79008 1.19519 5.97536 2.65742 5.97536H6.7802L0.748138 12.1878C-0.270565 13.237 -0.2458 14.9132 0.803271 15.932C1.85247 16.9505 3.52872 16.9258 4.54729 15.8768L14.5924 5.5313C15.3038 5.05662 15.7728 4.24724 15.7728 3.32785C15.7728 1.86548 14.5874 0.680081 13.1252 0.680081H2.65742Z" fill="white"/>
</mask>
<g mask="url(#mask1_9537_3172)">
<path d="M11.3178 -0.0688282C11.3685 -0.00339975 11.4468 0.0381772 11.5422 0.0381772C12.254 0.0156291 13.0722 0.0720633 13.8442 0.215823C14.9219 0.414716 15.9616 0.775745 16.9343 1.28914C16.9748 1.31051 17.0185 1.32068 17.0614 1.32068C17.1593 1.32068 17.2538 1.26789 17.3026 1.17535C17.373 1.04215 17.3221 0.877276 17.1889 0.807025C16.1673 0.267696 15.0752 -0.111578 13.9435 -0.320246C13.2728 -0.445237 12.5722 -0.50806 11.8983 -0.511057C12.24 -1.73582 12.4127 -3.00881 12.4127 -4.29339C12.4127 -4.64439 12.3995 -5.00216 12.3737 -5.35681C12.3629 -5.50695 12.2347 -5.61969 12.0821 -5.60887C11.9319 -5.59793 11.819 -5.46733 11.83 -5.31718C11.8547 -4.9757 11.8674 -4.63122 11.8674 -4.29339C11.8674 -2.97388 11.678 -1.6309 11.2731 -0.314512C11.2484 -0.234225 11.2642 -0.138297 11.3178 -0.0688282Z" fill="url(#paint11_linear_9537_3172)"/>
</g>
<path d="M0.80328 15.932C0.849679 15.9769 0.897382 16.0199 0.945997 16.0609C0.944042 16.0281 0.936089 15.9952 0.921492 15.9636C0.541303 15.1379 0.259387 14.2781 0.076526 13.3986C-0.140222 14.2815 0.103899 15.2529 0.80328 15.932Z" fill="url(#paint12_linear_9537_3172)"/>
<mask id="mask2_9537_3172" style="mask-type:luminance" maskUnits="userSpaceOnUse" x="0" y="0" width="16" height="17">
<path d="M2.65742 0.680081C1.19519 0.680081 0.00978621 1.86548 0.00978621 3.32785C0.00978621 4.79008 1.19519 5.97536 2.65742 5.97536H6.7802L0.748138 12.1878C-0.270565 13.237 -0.2458 14.9132 0.803271 15.932C1.85247 16.9505 3.52872 16.9258 4.54729 15.8768L14.5924 5.5313C15.3038 5.05662 15.7728 4.24724 15.7728 3.32785C15.7728 1.86548 14.5874 0.680081 13.1252 0.680081H2.65742Z" fill="white"/>
</mask>
<g mask="url(#mask2_9537_3172)">
<path d="M2.42214 18.417C2.00793 17.887 1.64639 17.3112 1.34779 16.7057C1.28119 16.571 1.11774 16.5156 0.982586 16.5819C0.847558 16.6485 0.792164 16.8121 0.858766 16.9471C1.17392 17.5859 1.55541 18.1934 1.99256 18.7529C2.30028 19.1465 2.6398 19.5215 3.00161 19.8672C3.0544 19.9176 3.12217 19.9426 3.18982 19.9426C3.26176 19.9426 3.33345 19.9145 3.38702 19.8584C3.49102 19.7495 3.48711 19.5769 3.37828 19.4729C3.0355 19.1454 2.71383 18.7901 2.42214 18.417Z" fill="url(#paint13_linear_9537_3172)"/>
</g>
<mask id="mask3_9537_3172" style="mask-type:luminance" maskUnits="userSpaceOnUse" x="0" y="0" width="16" height="17">
<path d="M2.65742 0.680081C1.19519 0.680081 0.00978621 1.86548 0.00978621 3.32785C0.00978621 4.79008 1.19519 5.97536 2.65742 5.97536H6.7802L0.748138 12.1878C-0.270565 13.237 -0.2458 14.9132 0.803271 15.932C1.85247 16.9505 3.52872 16.9258 4.54729 15.8768L14.5924 5.5313C15.3038 5.05662 15.7728 4.24724 15.7728 3.32785C15.7728 1.86548 14.5874 0.680081 13.1252 0.680081H2.65742Z" fill="white"/>
</mask>
<g mask="url(#mask3_9537_3172)">
<path d="M-1.269 11.8229C-1.27825 11.6871 -1.3949 11.5602 -1.54739 11.5685C-1.7094 11.5721 -2.16871 11.5698 -2.67584 11.5384C-2.82534 11.5303 -2.95554 11.6432 -2.96479 11.7936C-2.97418 11.9439 -2.85988 12.0733 -2.7096 12.0826C-2.4037 12.1015 -2.09611 12.1107 -1.79243 12.1129C-1.61582 14.1772 -0.965315 16.1973 0.0986142 17.9705C0.149836 18.0557 0.240027 18.1029 0.332696 18.1029C0.380398 18.1029 0.428754 18.0904 0.472677 18.0641C0.601839 17.9865 0.643678 17.819 0.566129 17.69C-0.497019 15.918 -1.13162 13.8892 -1.269 11.8229Z" fill="url(#paint14_linear_9537_3172)"/>
</g>
<mask id="mask4_9537_3172" style="mask-type:luminance" maskUnits="userSpaceOnUse" x="0" y="0" width="16" height="17">
<path d="M2.65742 0.680081C1.19519 0.680081 0.00978621 1.86548 0.00978621 3.32785C0.00978621 4.79008 1.19519 5.97536 2.65742 5.97536H6.7802L0.748138 12.1878C-0.270565 13.237 -0.2458 14.9132 0.803271 15.932C1.85247 16.9505 3.52872 16.9258 4.54729 15.8768L14.5924 5.5313C15.3038 5.05662 15.7728 4.24724 15.7728 3.32785C15.7728 1.86548 14.5874 0.680081 13.1252 0.680081H2.65742Z" fill="white"/>
</mask>
<g mask="url(#mask4_9537_3172)">
<path d="M-2.56471 1.6247C-2.27315 1.66811 -1.97494 1.69 -1.67843 1.69C1.62063 1.69 4.30463 -0.993998 4.30463 -4.29305C4.30463 -4.87422 4.22147 -5.44874 4.05725 -6.00084C4.0145 -6.14512 3.86292 -6.22697 3.71825 -6.18448C3.57397 -6.14147 3.49173 -5.98976 3.53461 -5.84548C3.68371 -5.34382 3.75931 -4.82156 3.75931 -4.29305C3.75931 -1.29468 1.31994 1.14481 -1.67843 1.14481C-1.94822 1.14481 -2.21945 1.12474 -2.48455 1.08551C-2.63378 1.06361 -2.7722 1.16618 -2.79436 1.31516C-2.81652 1.464 -2.71368 1.60268 -2.56471 1.6247Z" fill="url(#paint15_linear_9537_3172)"/>
</g>
<path d="M2.6575 0.680083C2.65555 0.680083 2.6536 0.680083 2.65164 0.680083C1.99305 1.25408 1.22186 1.69853 0.381062 1.97497C0.261544 2.17569 0.167835 2.39335 0.104492 2.62378C0.134209 2.61609 0.163793 2.60827 0.193509 2.60019C1.43861 2.26314 2.55949 1.5897 3.44343 0.680083H2.6575Z" fill="url(#paint16_linear_9537_3172)"/>
<path d="M4.27161 0.680039C3.33828 1.79558 2.10022 2.63977 0.69468 3.09086C0.469851 3.16359 0.241114 3.22549 0.0101594 3.27672C0.00989873 3.29366 0.00976562 3.31073 0.00976562 3.32781C0.00976562 3.49763 0.0256659 3.66381 0.0562947 3.82465C0.327393 3.76717 0.596536 3.69562 0.861899 3.60972C2.50947 3.08108 3.94212 2.04726 4.96682 0.680039H4.27161Z" fill="url(#paint17_linear_9537_3172)"/>
<path d="M5.71961 0.680071C4.67288 2.24071 3.16282 3.43028 1.37748 4.08222C1.00824 4.21725 0.628177 4.32738 0.241211 4.41197C0.319934 4.58727 0.417294 4.75241 0.530556 4.90503C0.881028 4.82148 1.22655 4.71787 1.56451 4.59431C3.57363 3.86091 5.25392 2.48574 6.36803 0.680071H5.71961Z" fill="url(#paint18_linear_9537_3172)"/>
<path d="M7.08075 0.680069C6.62001 1.49063 6.04901 2.2325 5.38208 2.88678C5.11828 3.09949 4.86191 3.32771 4.61949 3.56505C3.85194 4.18101 3.00398 4.67877 2.09867 5.0441C2.09789 5.04423 2.0971 5.04475 2.09632 5.04514C2.09476 5.04566 2.09319 5.04644 2.09176 5.04709C2.08694 5.04918 2.08199 5.05126 2.07729 5.05361C1.72017 5.19789 1.37153 5.31741 1.02783 5.41464C1.22242 5.56674 1.43878 5.69239 1.67156 5.78571C1.8797 5.71545 2.09007 5.63712 2.3033 5.55058C2.31034 5.54758 2.31724 5.54445 2.32402 5.54107C3.27417 5.15527 4.1641 4.63119 4.96931 3.98356H4.96918C4.97205 3.98134 4.97478 3.97899 4.97765 3.97639C5.24732 3.76055 5.50929 3.52738 5.75641 3.28365V3.28352C5.7581 3.28196 5.7598 3.28027 5.76149 3.27857C6.50114 2.55338 7.12884 1.72601 7.62711 0.819921C7.65266 0.773522 7.67794 0.72699 7.70297 0.680069H7.08075Z" fill="url(#paint19_linear_9537_3172)"/>
<path d="M8.39227 0.680061C8.27106 0.925092 8.14098 1.16504 8.00243 1.39964C8.00165 1.40082 8.00087 1.40212 8.00009 1.40342C7.99918 1.40473 7.99826 1.40603 7.99748 1.40733C7.99501 1.41111 7.9924 1.41463 7.99018 1.41854C7.52827 2.20003 6.97239 2.92405 6.33792 3.57025C6.24629 3.66305 6.22792 3.82649 6.32841 3.94014C6.42381 4.04989 6.58191 4.06162 6.69491 3.98003C8.48481 2.65021 10.7696 2.03242 13.1009 2.36817C14.0328 2.50254 14.935 2.78993 15.7706 3.21431C15.7609 2.98596 15.7223 2.76517 15.6585 2.55533C14.8728 2.19821 14.0376 1.95227 13.1788 1.82832C11.4107 1.57403 9.54861 1.82024 7.82244 2.66077C8.04571 2.35579 8.25516 2.0405 8.44844 1.71493C8.45261 1.70906 8.45665 1.70281 8.4603 1.69629C8.65633 1.36615 8.83541 1.02701 8.99729 0.680061H8.39227Z" fill="url(#paint20_linear_9537_3172)"/>
<path d="M10.6602 0.680054C10.5195 0.696346 10.3788 0.715507 10.2376 0.737794C10.2458 0.718504 10.2539 0.699214 10.2619 0.680054H9.67002C9.62558 0.780673 9.57983 0.880511 9.53251 0.980087C9.49237 1.06337 9.49641 1.17768 9.56523 1.26513C9.63209 1.34946 9.73714 1.38465 9.83437 1.36406C11.0088 1.11915 12.262 1.0824 13.5127 1.29719C14.1141 1.39964 14.6988 1.55656 15.2638 1.76666C14.9598 1.35102 14.5377 1.02714 14.0467 0.844929C13.9003 0.813387 13.753 0.784975 13.6047 0.75969C13.4215 0.728149 13.2372 0.70169 13.0521 0.680054H10.6602Z" fill="url(#paint21_linear_9537_3172)"/>
<path d="M9.72119 13.6542C9.72119 15.3253 11.076 16.6801 12.7471 16.6801C14.4181 16.6801 15.7728 15.3253 15.7728 13.6542C15.7728 11.9831 14.4181 10.6284 12.7471 10.6284C11.076 10.6284 9.72119 11.9831 9.72119 13.6542Z" fill="url(#paint22_linear_9537_3172)"/>
<defs>
<linearGradient id="paint0_linear_9537_3172" x1="11.8505" y1="-13.953" x2="11.8505" y2="22.7256" gradientUnits="userSpaceOnUse">
<stop stop-color="#E148AC"/>
<stop offset="1" stop-color="#5D0191"/>
</linearGradient>
<linearGradient id="paint1_linear_9537_3172" x1="11.8509" y1="-13.9531" x2="11.8509" y2="22.7256" gradientUnits="userSpaceOnUse">
<stop stop-color="#E148AC"/>
<stop offset="1" stop-color="#5D0191"/>
</linearGradient>
<linearGradient id="paint2_linear_9537_3172" x1="11.8508" y1="-13.9531" x2="11.8508" y2="22.7256" gradientUnits="userSpaceOnUse">
<stop stop-color="#E148AC"/>
<stop offset="1" stop-color="#5D0191"/>
</linearGradient>
<linearGradient id="paint3_linear_9537_3172" x1="11.8509" y1="-13.953" x2="11.8509" y2="22.7256" gradientUnits="userSpaceOnUse">
<stop stop-color="#E148AC"/>
<stop offset="1" stop-color="#5D0191"/>
</linearGradient>
<linearGradient id="paint4_linear_9537_3172" x1="11.8509" y1="-13.9531" x2="11.8509" y2="22.7256" gradientUnits="userSpaceOnUse">
<stop stop-color="#E148AC"/>
<stop offset="1" stop-color="#5D0191"/>
</linearGradient>
<linearGradient id="paint5_linear_9537_3172" x1="15.9465" y1="-13.9531" x2="15.9465" y2="22.7256" gradientUnits="userSpaceOnUse">
<stop stop-color="#E148AC"/>
<stop offset="1" stop-color="#5D0191"/>
</linearGradient>
<linearGradient id="paint6_linear_9537_3172" x1="10.1771" y1="-13.953" x2="10.1771" y2="22.7256" gradientUnits="userSpaceOnUse">
<stop stop-color="#E148AC"/>
<stop offset="1" stop-color="#5D0191"/>
</linearGradient>
<linearGradient id="paint7_linear_9537_3172" x1="10.7023" y1="-13.9531" x2="10.7023" y2="22.7256" gradientUnits="userSpaceOnUse">
<stop stop-color="#E148AC"/>
<stop offset="1" stop-color="#5D0191"/>
</linearGradient>
<linearGradient id="paint8_linear_9537_3172" x1="4.1602" y1="-13.953" x2="4.1602" y2="22.7256" gradientUnits="userSpaceOnUse">
<stop stop-color="#E148AC"/>
<stop offset="1" stop-color="#5D0191"/>
</linearGradient>
<linearGradient id="paint9_linear_9537_3172" x1="2.9199" y1="-13.9531" x2="2.9199" y2="22.7256" gradientUnits="userSpaceOnUse">
<stop stop-color="#E148AC"/>
<stop offset="1" stop-color="#5D0191"/>
</linearGradient>
<linearGradient id="paint10_linear_9537_3172" x1="1.62432" y1="-13.953" x2="1.62432" y2="22.7256" gradientUnits="userSpaceOnUse">
<stop stop-color="#E148AC"/>
<stop offset="1" stop-color="#5D0191"/>
</linearGradient>
<linearGradient id="paint11_linear_9537_3172" x1="14.298" y1="-13.953" x2="14.298" y2="22.7256" gradientUnits="userSpaceOnUse">
<stop stop-color="#E148AC"/>
<stop offset="1" stop-color="#5D0191"/>
</linearGradient>
<linearGradient id="paint12_linear_9537_3172" x1="-1.04094" y1="-13.953" x2="-1.04094" y2="22.7256" gradientUnits="userSpaceOnUse">
<stop stop-color="#E148AC"/>
<stop offset="1" stop-color="#5D0191"/>
</linearGradient>
<linearGradient id="paint13_linear_9537_3172" x1="2.14655" y1="-13.953" x2="2.14655" y2="22.7256" gradientUnits="userSpaceOnUse">
<stop stop-color="#E148AC"/>
<stop offset="1" stop-color="#5D0191"/>
</linearGradient>
<linearGradient id="paint14_linear_9537_3172" x1="-1.18012" y1="-13.9531" x2="-1.18012" y2="22.7256" gradientUnits="userSpaceOnUse">
<stop stop-color="#E148AC"/>
<stop offset="1" stop-color="#5D0191"/>
</linearGradient>
<linearGradient id="paint15_linear_9537_3172" x1="0.753664" y1="-13.9531" x2="0.753664" y2="22.7256" gradientUnits="userSpaceOnUse">
<stop stop-color="#E148AC"/>
<stop offset="1" stop-color="#5D0191"/>
</linearGradient>
<linearGradient id="paint16_linear_9537_3172" x1="1.2422" y1="-13.953" x2="1.2422" y2="22.7256" gradientUnits="userSpaceOnUse">
<stop stop-color="#E148AC"/>
<stop offset="1" stop-color="#5D0191"/>
</linearGradient>
<linearGradient id="paint17_linear_9537_3172" x1="1.79663" y1="-13.9531" x2="1.79663" y2="22.7256" gradientUnits="userSpaceOnUse">
<stop stop-color="#E148AC"/>
<stop offset="1" stop-color="#5D0191"/>
</linearGradient>
<linearGradient id="paint18_linear_9537_3172" x1="2.37568" y1="-13.953" x2="2.37568" y2="22.7256" gradientUnits="userSpaceOnUse">
<stop stop-color="#E148AC"/>
<stop offset="1" stop-color="#5D0191"/>
</linearGradient>
<linearGradient id="paint19_linear_9537_3172" x1="2.95482" y1="-13.953" x2="2.95482" y2="22.7256" gradientUnits="userSpaceOnUse">
<stop stop-color="#E148AC"/>
<stop offset="1" stop-color="#5D0191"/>
</linearGradient>
<linearGradient id="paint20_linear_9537_3172" x1="11.949" y1="-13.953" x2="11.949" y2="22.7256" gradientUnits="userSpaceOnUse">
<stop stop-color="#E148AC"/>
<stop offset="1" stop-color="#5D0191"/>
</linearGradient>
<linearGradient id="paint21_linear_9537_3172" x1="13.5676" y1="-13.9531" x2="13.5676" y2="22.7256" gradientUnits="userSpaceOnUse">
<stop stop-color="#E148AC"/>
<stop offset="1" stop-color="#5D0191"/>
</linearGradient>
<linearGradient id="paint22_linear_9537_3172" x1="12.7471" y1="-13.9531" x2="12.7471" y2="22.7256" gradientUnits="userSpaceOnUse">
<stop stop-color="#E148AC"/>
<stop offset="1" stop-color="#5D0191"/>
</linearGradient>
</defs>
</svg>
