<svg width="119" height="121" viewBox="0 0 119 121" fill="none" xmlns="http://www.w3.org/2000/svg">
<mask id="mask0_9537_3172" style="mask-type:luminance" maskUnits="userSpaceOnUse" x="0" y="0" width="119" height="121">
<path d="M19.9307 0.680224C8.96391 0.680224 0.0733966 9.57074 0.0733966 20.5385C0.0733966 31.5052 8.96391 40.3948 19.9307 40.3948H50.8515L5.61104 86.9881C-2.02923 94.8571 -1.8435 107.429 6.02453 115.069C13.8935 122.709 26.4654 122.523 34.1047 114.656L109.443 37.0644C114.778 33.5043 118.296 27.4339 118.296 20.5385C118.296 9.57074 109.406 0.680224 98.439 0.680224H19.9307Z" fill="white"/>
</mask>
<g mask="url(#mask0_9537_3172)">
<path d="M88.879 83.6509C85.5516 83.6509 82.8429 80.9432 82.8429 77.6157C82.8429 74.2873 85.5516 71.5796 88.879 71.5796C92.2075 71.5796 94.9152 74.2873 94.9152 77.6157C94.9152 80.9432 92.2075 83.6509 88.879 83.6509ZM88.879 67.4896C83.2955 67.4896 78.7539 72.0321 78.7539 77.6157C78.7539 83.1983 83.2955 87.7399 88.879 87.7399C94.4616 87.7399 99.0042 83.1983 99.0042 77.6157C99.0042 72.0321 94.4616 67.4896 88.879 67.4896Z" fill="url(#paint0_linear_9537_3172)"/>
</g>
<path d="M70.3418 77.3358L75.5979 71.9223C77.0036 68.6545 79.5823 66.0044 82.8003 64.5049L88.0564 59.0914C78.3056 59.5206 70.4874 67.5157 70.3418 77.3358Z" fill="url(#paint1_linear_9537_3172)"/>
<path d="M61.9229 77.6154C61.9229 80.1599 62.2777 82.6232 62.9395 84.9585L66.3364 81.4609C66.1233 80.2107 66.0128 78.9262 66.0128 77.6154C66.0128 65.0054 76.2708 54.7464 88.8808 54.7464C89.96 54.7464 91.0216 54.8217 92.0607 54.9673L95.4575 51.4688C93.352 50.9389 91.1496 50.6574 88.8808 50.6574C74.0167 50.6574 61.9229 62.7503 61.9229 77.6154Z" fill="url(#paint2_linear_9537_3172)"/>
<path d="M53.5073 77.6157C53.5073 82.6079 54.5474 87.3626 56.4213 91.6734L59.5376 88.4642C58.2835 85.083 57.5972 81.428 57.5972 77.6157C57.5972 60.3655 71.6315 46.3313 88.8817 46.3313C92.3704 46.3313 95.7263 46.9051 98.8622 47.9628L101.978 44.7536C97.9267 43.1328 93.5053 42.2414 88.8817 42.2414C69.3763 42.2414 53.5073 58.1103 53.5073 77.6157Z" fill="url(#paint3_linear_9537_3172)"/>
<path d="M45.0918 77.6154C45.0918 85.0093 46.9344 91.9819 50.1837 98.0963L53.1925 94.9976C50.6236 89.7444 49.1817 83.8451 49.1817 77.6154C49.1817 55.7102 66.9461 37.9145 88.8826 37.9145C94.6568 37.9145 100.189 39.1735 105.191 41.4433L108.198 38.3466C102.337 35.4472 95.7663 33.8246 88.8826 33.8246C64.7506 33.8246 45.0918 53.3905 45.0918 77.6154Z" fill="url(#paint4_linear_9537_3172)"/>
<path d="M107.09 30.8199C106.639 31.8541 107.111 33.0594 108.144 33.513C109.372 34.0497 110.574 34.6362 111.746 35.2696C112.786 34.3312 113.726 33.2833 114.548 32.1454C113.006 31.2745 111.416 30.4798 109.783 29.7662C109.516 29.6489 109.238 29.5931 108.963 29.5931C108.176 29.5931 107.426 30.0516 107.09 30.8199Z" fill="url(#paint5_linear_9537_3172)"/>
<path d="M36.6763 77.6156C36.6763 87.3947 39.3791 96.5541 44.0771 104.387L47.0331 101.343C43.0448 94.3371 40.7652 86.2373 40.7652 77.6156C40.7652 46.5981 69.9089 23.2989 100.536 30.9216C101.631 31.1953 102.743 30.5277 103.015 29.4329C103.288 28.3351 102.622 27.2266 101.525 26.9529C97.2354 25.8854 92.9666 25.3791 88.7877 25.3781C60.7447 25.3781 36.6763 48.1992 36.6763 77.6156Z" fill="url(#paint6_linear_9537_3172)"/>
<path d="M41.0398 40.3956H46.3409C57.9528 27.1493 75.5804 19.4269 94.5344 21.3663C102.351 22.1405 109.899 24.5599 116.68 28.3907C117.227 27.1239 117.646 25.7886 117.92 24.4015C110.848 20.5413 103.029 18.0975 94.945 17.2979C92.859 17.0848 90.7847 16.9802 88.7348 16.9802C69.5579 16.9792 52.1933 26.0965 41.0398 40.3956ZM30.4465 61.4083C29.0203 66.5579 28.2568 71.989 28.2568 77.6156C28.2568 89.771 31.8531 101.103 38.0379 110.603L40.9646 107.589C35.5061 98.8951 32.3468 88.6165 32.3468 77.6156C32.3468 69.2597 34.1522 61.3643 37.3761 54.2725L30.4465 61.4083Z" fill="url(#paint7_linear_9537_3172)"/>
<path d="M38.9049 30.0253C33.5461 34.1768 27.7054 37.6655 21.5324 40.3957H30.638C30.6898 40.3664 30.7416 40.3371 30.7934 40.3078C30.7748 40.3361 30.7563 40.3664 30.7377 40.3957H35.6448C37.4552 37.8131 39.4581 35.3557 41.6429 33.0458C42.2959 32.3605 42.4532 31.1533 41.6663 30.2755C41.2489 29.818 40.6879 29.603 40.1404 29.603C39.6898 29.603 39.2499 29.7486 38.9049 30.0253ZM20.0573 72.1093C19.9127 73.9373 19.8413 75.774 19.8413 77.6157C19.8413 92.0585 24.2753 105.503 31.8912 116.622C32.6653 116.03 33.4044 115.375 34.1033 114.656L34.9254 113.809C27.9694 103.448 23.9303 90.9871 23.9303 77.6157C23.9303 74.1171 24.2089 70.6606 24.7504 67.2745L20.0573 72.1093Z" fill="url(#paint8_linear_9537_3172)"/>
<path d="M11.4956 80.9271C12.0958 95.2439 16.5728 108.748 24.1066 120.221C25.4829 119.922 26.8319 119.475 28.131 118.88C20.0675 106.99 15.5152 92.7131 15.5152 77.6153C15.5152 77.3377 15.5171 77.0601 15.52 76.7825L11.4956 80.9271Z" fill="url(#paint9_linear_9537_3172)"/>
<path d="M5.61066 86.988C4.94302 87.6762 4.33501 88.3995 3.78662 89.1532C5.26365 100.045 8.80617 110.442 14.1102 119.834C15.8218 120.35 17.5882 120.629 19.3585 120.673C12.769 110.035 8.61554 97.8873 7.44154 85.1024L5.61066 86.988Z" fill="url(#paint10_linear_9537_3172)"/>
<mask id="mask1_9537_3172" style="mask-type:luminance" maskUnits="userSpaceOnUse" x="0" y="0" width="119" height="121">
<path d="M19.9307 0.680224C8.96391 0.680224 0.0733966 9.57074 0.0733966 20.5385C0.0733966 31.5052 8.96391 40.3948 19.9307 40.3948H50.8515L5.61104 86.9881C-2.02923 94.8571 -1.8435 107.429 6.02453 115.069C13.8935 122.709 26.4654 122.523 34.1047 114.656L109.443 37.0644C114.778 33.5043 118.296 27.4339 118.296 20.5385C118.296 9.57074 109.406 0.680224 98.439 0.680224H19.9307Z" fill="white"/>
</mask>
<g mask="url(#mask1_9537_3172)">
<path d="M84.8832 -4.93656C85.2635 -4.44585 85.851 -4.13402 86.5665 -4.13402C91.9047 -4.30313 98.0416 -3.87987 103.831 -2.80167C111.914 -1.30998 119.712 1.39774 127.007 5.24818C127.311 5.40849 127.639 5.48474 127.96 5.48474C128.695 5.48474 129.403 5.08884 129.77 4.3948C130.298 3.39578 129.915 2.15922 128.916 1.63234C121.255 -2.41263 113.064 -5.25719 104.576 -6.82219C99.546 -7.75963 94.2918 -8.2308 89.2371 -8.25328C91.8001 -17.439 93.0953 -26.9864 93.0953 -36.6208C93.0953 -39.2533 92.9966 -41.9366 92.803 -44.5964C92.7219 -45.7225 91.7601 -46.568 90.6154 -46.4869C89.4893 -46.4048 88.6427 -45.4253 88.7248 -44.2992C88.9106 -41.7381 89.0054 -39.1545 89.0054 -36.6208C89.0054 -26.7244 87.5851 -16.6521 84.5479 -6.77919C84.3632 -6.17704 84.4815 -5.45758 84.8832 -4.93656Z" fill="url(#paint11_linear_9537_3172)"/>
</g>
<path d="M6.0246 115.069C6.37259 115.406 6.73037 115.729 7.09498 116.036C7.08032 115.791 7.02067 115.543 6.91119 115.307C4.05977 109.114 1.9454 102.666 0.573945 96.0693C-1.05167 102.691 0.779243 109.976 6.0246 115.069Z" fill="url(#paint12_linear_9537_3172)"/>
<mask id="mask2_9537_3172" style="mask-type:luminance" maskUnits="userSpaceOnUse" x="0" y="0" width="119" height="121">
<path d="M19.9307 0.680224C8.96391 0.680224 0.0733966 9.57074 0.0733966 20.5385C0.0733966 31.5052 8.96391 40.3948 19.9307 40.3948H50.8515L5.61104 86.9881C-2.02923 94.8571 -1.8435 107.429 6.02453 115.069C13.8935 122.709 26.4654 122.523 34.1047 114.656L109.443 37.0644C114.778 33.5043 118.296 27.4339 118.296 20.5385C118.296 9.57074 109.406 0.680224 98.439 0.680224H19.9307Z" fill="white"/>
</mask>
<g mask="url(#mask2_9537_3172)">
<path d="M18.1663 133.708C15.0597 129.732 12.3481 125.413 10.1086 120.873C9.60913 119.862 8.38333 119.447 7.36964 119.944C6.35693 120.444 5.94148 121.67 6.44099 122.683C8.80462 127.474 11.6658 132.03 14.9444 136.227C17.2523 139.179 19.7988 141.991 22.5124 144.583C22.9082 144.962 23.4166 145.149 23.9239 145.149C24.4635 145.149 25.0011 144.938 25.4029 144.518C26.1829 143.701 26.1536 142.406 25.3374 141.626C22.7665 139.17 20.354 136.505 18.1663 133.708Z" fill="url(#paint13_linear_9537_3172)"/>
</g>
<mask id="mask3_9537_3172" style="mask-type:luminance" maskUnits="userSpaceOnUse" x="0" y="0" width="119" height="121">
<path d="M19.9307 0.680224C8.96391 0.680224 0.0733966 9.57074 0.0733966 20.5385C0.0733966 31.5052 8.96391 40.3948 19.9307 40.3948H50.8515L5.61104 86.9881C-2.02923 94.8571 -1.8435 107.429 6.02453 115.069C13.8935 122.709 26.4654 122.523 34.1047 114.656L109.443 37.0644C114.778 33.5043 118.296 27.4339 118.296 20.5385C118.296 9.57074 109.406 0.680224 98.439 0.680224H19.9307Z" fill="white"/>
</mask>
<g mask="url(#mask3_9537_3172)">
<path d="M-9.51773 84.2517C-9.58714 83.2332 -10.462 82.2811 -11.6057 82.3436C-12.8207 82.37 -16.2655 82.3534 -20.0691 82.1178C-21.1903 82.0572 -22.1668 82.9038 -22.2362 84.0318C-22.3066 85.1589 -21.4493 86.1296 -20.3222 86.199C-18.028 86.3407 -15.721 86.4101 -13.4434 86.4267C-12.1189 101.909 -7.24011 117.059 0.739364 130.358C1.12353 130.998 1.79996 131.351 2.49497 131.351C2.85275 131.351 3.21541 131.258 3.54483 131.06C4.51355 130.479 4.82735 129.222 4.24572 128.255C-3.72788 114.964 -8.48743 99.7483 -9.51773 84.2517Z" fill="url(#paint14_linear_9537_3172)"/>
</g>
<mask id="mask4_9537_3172" style="mask-type:luminance" maskUnits="userSpaceOnUse" x="0" y="0" width="119" height="121">
<path d="M19.9307 0.680224C8.96391 0.680224 0.0733966 9.57074 0.0733966 20.5385C0.0733966 31.5052 8.96391 40.3948 19.9307 40.3948H50.8515L5.61104 86.9881C-2.02923 94.8571 -1.8435 107.429 6.02453 115.069C13.8935 122.709 26.4654 122.523 34.1047 114.656L109.443 37.0644C114.778 33.5043 118.296 27.4339 118.296 20.5385C118.296 9.57074 109.406 0.680224 98.439 0.680224H19.9307Z" fill="white"/>
</mask>
<g mask="url(#mask4_9537_3172)">
<path d="M-19.2355 7.7649C-17.0488 8.09041 -14.8123 8.25464 -12.5884 8.25464C12.1545 8.25464 32.2845 -11.8754 32.2845 -36.6183C32.2845 -40.977 31.6608 -45.2859 30.4291 -49.4267C30.1085 -50.5088 28.9717 -51.1227 27.8866 -50.804C26.8045 -50.4814 26.1877 -49.3436 26.5093 -48.2615C27.6276 -44.499 28.1946 -40.5821 28.1946 -36.6183C28.1946 -14.1305 9.89934 4.16569 -12.5884 4.16569C-14.6119 4.16569 -16.6461 4.01515 -18.6344 3.72092C-19.7536 3.55669 -20.7918 4.32599 -20.9579 5.44329C-21.1241 6.55962 -20.3528 7.5997 -19.2355 7.7649Z" fill="url(#paint15_linear_9537_3172)"/>
</g>
<path d="M19.9313 0.680277C19.9166 0.680277 19.902 0.680277 19.8873 0.680277C14.9479 4.98526 9.16392 8.31861 2.85796 10.3919C1.96158 11.8973 1.25876 13.5297 0.783691 15.258C1.00657 15.2003 1.22845 15.1417 1.45132 15.0811C10.7895 12.5532 19.1962 7.50237 25.8257 0.680277H19.9313Z" fill="url(#paint16_linear_9537_3172)"/>
<path d="M32.0371 0.679979C25.0371 9.04655 15.7516 15.3779 5.2101 18.7611C3.52388 19.3066 1.80836 19.7709 0.0761955 20.1551C0.0742405 20.2821 0.0732422 20.4102 0.0732422 20.5382C0.0732422 21.8119 0.192494 23.0583 0.42221 24.2645C2.45545 23.8334 4.47402 23.2968 6.46424 22.6526C18.821 18.6878 29.5659 10.9341 37.2512 0.679979H32.0371Z" fill="url(#paint17_linear_9537_3172)"/>
<path d="M42.8971 0.680183C35.0466 12.385 23.7211 21.3068 10.3311 26.1963C7.56179 27.209 4.71133 28.035 1.80908 28.6694C2.3995 29.9842 3.12971 31.2227 3.97917 32.3674C6.60771 31.7408 9.19912 30.9637 11.7338 30.037C26.8022 24.5365 39.4044 14.2227 47.7602 0.680183H42.8971Z" fill="url(#paint18_linear_9537_3172)"/>
<path d="M53.1059 0.680141C49.6503 6.75932 45.3678 12.3233 40.3659 17.2305C38.3874 18.8258 36.4646 20.5374 34.6464 22.3175C28.8898 26.9372 22.5301 30.6704 15.7403 33.4103C15.7344 33.4113 15.7285 33.4152 15.7227 33.4182C15.7109 33.4221 15.6992 33.4279 15.6884 33.4328C15.6523 33.4485 15.6151 33.4641 15.58 33.4817C12.9016 34.5638 10.2867 35.4602 7.70898 36.1894C9.16842 37.3302 10.7911 38.2725 12.5369 38.9724C14.098 38.4455 15.6758 37.858 17.275 37.209C17.3278 37.1865 17.3796 37.163 17.4304 37.1376C24.5565 34.2442 31.231 30.3136 37.2701 25.4563H37.2691C37.2906 25.4397 37.3111 25.4221 37.3326 25.4025C39.3551 23.7838 41.3199 22.035 43.1733 20.207V20.206C43.186 20.1943 43.1987 20.1816 43.2114 20.1689C48.7588 14.73 53.4665 8.52473 57.2036 1.72903C57.3952 1.38103 57.5848 1.03205 57.7725 0.680141H53.1059Z" fill="url(#paint19_linear_9537_3172)"/>
<path d="M62.942 0.680136C62.0329 2.51787 61.0574 4.31749 60.0183 6.07702C60.0124 6.08582 60.0065 6.09558 60.0007 6.10536C59.9938 6.11513 59.987 6.12491 59.9811 6.13468C59.9625 6.16303 59.943 6.18942 59.9264 6.21875C56.4621 12.0799 52.293 17.51 47.5344 22.3566C46.8472 23.0526 46.7094 24.2784 47.463 25.1308C48.1786 25.9538 49.3643 26.0418 50.2118 25.4299C63.6361 15.4563 80.7719 10.8229 98.2568 13.3409C105.246 14.3488 112.012 16.5042 118.279 19.687C118.207 17.9744 117.918 16.3184 117.439 14.7446C111.546 12.0663 105.282 10.2217 98.8413 9.29207C85.5803 7.38494 71.6146 9.23146 58.6683 15.5355C60.3428 13.2481 61.9137 10.8835 63.3633 8.44162C63.3946 8.39763 63.4249 8.35072 63.4523 8.30185C64.9225 5.8258 66.2656 3.28229 67.4796 0.680136H62.942Z" fill="url(#paint20_linear_9537_3172)"/>
<path d="M79.9513 0.680027C78.8966 0.802217 77.8409 0.94592 76.7822 1.11308C76.8438 0.968403 76.9044 0.823722 76.964 0.680027H72.5252C72.1918 1.43467 71.8487 2.18345 71.4939 2.93027C71.1928 3.55491 71.2231 4.4122 71.7392 5.06811C72.2407 5.70057 73.0286 5.96448 73.7578 5.81004C82.5662 3.97328 91.965 3.69762 101.345 5.30857C105.856 6.0769 110.241 7.25383 114.478 8.82959C112.199 5.71229 109.032 3.28315 105.35 1.91659C104.252 1.68003 103.148 1.46694 102.035 1.2773C100.661 1.04074 99.2788 0.842295 97.8907 0.680027H79.9513Z" fill="url(#paint21_linear_9537_3172)"/>
<path d="M72.9092 97.986C72.9092 110.52 83.0705 120.68 95.6032 120.68C108.136 120.68 118.296 110.52 118.296 97.986C118.296 85.4533 108.136 75.293 95.6032 75.293C83.0705 75.293 72.9092 85.4533 72.9092 97.986Z" fill="url(#paint22_linear_9537_3172)"/>
<defs>
<linearGradient id="paint0_linear_9537_3172" x1="88.8791" y1="-109.068" x2="88.8791" y2="166.022" gradientUnits="userSpaceOnUse">
<stop stop-color="#E148AC"/>
<stop offset="1" stop-color="#5D0191"/>
</linearGradient>
<linearGradient id="paint1_linear_9537_3172" x1="88.8814" y1="-109.068" x2="88.8814" y2="166.022" gradientUnits="userSpaceOnUse">
<stop stop-color="#E148AC"/>
<stop offset="1" stop-color="#5D0191"/>
</linearGradient>
<linearGradient id="paint2_linear_9537_3172" x1="88.881" y1="-109.068" x2="88.881" y2="166.022" gradientUnits="userSpaceOnUse">
<stop stop-color="#E148AC"/>
<stop offset="1" stop-color="#5D0191"/>
</linearGradient>
<linearGradient id="paint3_linear_9537_3172" x1="88.8818" y1="-109.068" x2="88.8818" y2="166.022" gradientUnits="userSpaceOnUse">
<stop stop-color="#E148AC"/>
<stop offset="1" stop-color="#5D0191"/>
</linearGradient>
<linearGradient id="paint4_linear_9537_3172" x1="88.8821" y1="-109.068" x2="88.8821" y2="166.022" gradientUnits="userSpaceOnUse">
<stop stop-color="#E148AC"/>
<stop offset="1" stop-color="#5D0191"/>
</linearGradient>
<linearGradient id="paint5_linear_9537_3172" x1="119.599" y1="-109.068" x2="119.599" y2="166.022" gradientUnits="userSpaceOnUse">
<stop stop-color="#E148AC"/>
<stop offset="1" stop-color="#5D0191"/>
</linearGradient>
<linearGradient id="paint6_linear_9537_3172" x1="76.3284" y1="-109.068" x2="76.3284" y2="166.022" gradientUnits="userSpaceOnUse">
<stop stop-color="#E148AC"/>
<stop offset="1" stop-color="#5D0191"/>
</linearGradient>
<linearGradient id="paint7_linear_9537_3172" x1="80.2674" y1="-109.068" x2="80.2674" y2="166.022" gradientUnits="userSpaceOnUse">
<stop stop-color="#E148AC"/>
<stop offset="1" stop-color="#5D0191"/>
</linearGradient>
<linearGradient id="paint8_linear_9537_3172" x1="31.2015" y1="-109.068" x2="31.2015" y2="166.022" gradientUnits="userSpaceOnUse">
<stop stop-color="#E148AC"/>
<stop offset="1" stop-color="#5D0191"/>
</linearGradient>
<linearGradient id="paint9_linear_9537_3172" x1="21.8995" y1="-109.068" x2="21.8995" y2="166.021" gradientUnits="userSpaceOnUse">
<stop stop-color="#E148AC"/>
<stop offset="1" stop-color="#5D0191"/>
</linearGradient>
<linearGradient id="paint10_linear_9537_3172" x1="12.1824" y1="-109.068" x2="12.1824" y2="166.022" gradientUnits="userSpaceOnUse">
<stop stop-color="#E148AC"/>
<stop offset="1" stop-color="#5D0191"/>
</linearGradient>
<linearGradient id="paint11_linear_9537_3172" x1="107.235" y1="-109.068" x2="107.235" y2="166.022" gradientUnits="userSpaceOnUse">
<stop stop-color="#E148AC"/>
<stop offset="1" stop-color="#5D0191"/>
</linearGradient>
<linearGradient id="paint12_linear_9537_3172" x1="-7.80705" y1="-109.068" x2="-7.80705" y2="166.022" gradientUnits="userSpaceOnUse">
<stop stop-color="#E148AC"/>
<stop offset="1" stop-color="#5D0191"/>
</linearGradient>
<linearGradient id="paint13_linear_9537_3172" x1="16.0993" y1="-109.068" x2="16.0993" y2="166.022" gradientUnits="userSpaceOnUse">
<stop stop-color="#E148AC"/>
<stop offset="1" stop-color="#5D0191"/>
</linearGradient>
<linearGradient id="paint14_linear_9537_3172" x1="-8.85112" y1="-109.068" x2="-8.85112" y2="166.022" gradientUnits="userSpaceOnUse">
<stop stop-color="#E148AC"/>
<stop offset="1" stop-color="#5D0191"/>
</linearGradient>
<linearGradient id="paint15_linear_9537_3172" x1="5.65223" y1="-109.068" x2="5.65223" y2="166.021" gradientUnits="userSpaceOnUse">
<stop stop-color="#E148AC"/>
<stop offset="1" stop-color="#5D0191"/>
</linearGradient>
<linearGradient id="paint16_linear_9537_3172" x1="9.31646" y1="-109.068" x2="9.31646" y2="166.022" gradientUnits="userSpaceOnUse">
<stop stop-color="#E148AC"/>
<stop offset="1" stop-color="#5D0191"/>
</linearGradient>
<linearGradient id="paint17_linear_9537_3172" x1="13.4747" y1="-109.068" x2="13.4747" y2="166.022" gradientUnits="userSpaceOnUse">
<stop stop-color="#E148AC"/>
<stop offset="1" stop-color="#5D0191"/>
</linearGradient>
<linearGradient id="paint18_linear_9537_3172" x1="17.8176" y1="-109.068" x2="17.8176" y2="166.022" gradientUnits="userSpaceOnUse">
<stop stop-color="#E148AC"/>
<stop offset="1" stop-color="#5D0191"/>
</linearGradient>
<linearGradient id="paint19_linear_9537_3172" x1="22.1614" y1="-109.068" x2="22.1614" y2="166.022" gradientUnits="userSpaceOnUse">
<stop stop-color="#E148AC"/>
<stop offset="1" stop-color="#5D0191"/>
</linearGradient>
<linearGradient id="paint20_linear_9537_3172" x1="89.6177" y1="-109.068" x2="89.6177" y2="166.022" gradientUnits="userSpaceOnUse">
<stop stop-color="#E148AC"/>
<stop offset="1" stop-color="#5D0191"/>
</linearGradient>
<linearGradient id="paint21_linear_9537_3172" x1="101.757" y1="-109.068" x2="101.757" y2="166.022" gradientUnits="userSpaceOnUse">
<stop stop-color="#E148AC"/>
<stop offset="1" stop-color="#5D0191"/>
</linearGradient>
<linearGradient id="paint22_linear_9537_3172" x1="95.6032" y1="-109.068" x2="95.6032" y2="166.022" gradientUnits="userSpaceOnUse">
<stop stop-color="#E148AC"/>
<stop offset="1" stop-color="#5D0191"/>
</linearGradient>
</defs>
</svg>
